<?xml version="1.0" encoding="UTF-8"?>
<svg id="Layer_2" data-name="Layer 2" xmlns="http://www.w3.org/2000/svg" viewBox="0 0 239.03 56.17">
  <defs>
    <style>
      .cls-1 {
        fill: #e6e7e8;
      }
    </style>
  </defs>
  <g id="Layer_1-2" data-name="Layer 1">
    <g>
      <g>
        <polygon class="cls-1" points="12.25 49.3 16.22 56.17 40.18 56.17 20.41 35.17 12.25 49.3"/>
        <path class="cls-1" d="M37.67,15.06h19.66L48.64,0H16.22L0,28.08l8.69,15.05,9.82-17.01c.2-.34.55-.52.9-.52.27,0,.55.11.76.33l28.47,30.24h0l-11.97-39.77c-.2-.67.3-1.34,1-1.34Z"/>
        <polygon class="cls-1" points="60.9 21.22 44.57 21.22 52.88 48.84 64.86 28.08 60.9 21.22"/>
      </g>
      <g>
        <g>
          <path class="cls-1" d="M99.67,11.18h-9.72v19.92h-4.41V11.18h-9.74v-4.41h23.87v4.41Z"/>
          <path class="cls-1" d="M124.9,31.1h-15.92c-.61,0-1.28-.11-2-.32-.72-.21-1.39-.57-2.01-1.06-.62-.49-1.13-1.13-1.54-1.92-.41-.79-.62-1.75-.62-2.89v-15.92c0-.31.06-.59.17-.87.11-.27.27-.51.47-.71.2-.2.43-.36.7-.47.27-.11.57-.17.88-.17h19.87v4.41h-17.68v13.73c0,.58.15,1.02.46,1.32.31.31.75.46,1.34.46h15.88v4.41ZM122.92,21.15h-13.93v-4.45h13.93v4.45Z"/>
          <path class="cls-1" d="M153.48,29.21c0,.32-.06.61-.18.88-.12.27-.28.51-.47.7-.2.2-.43.35-.7.47-.27.11-.56.17-.87.17-.27,0-.55-.05-.82-.15s-.52-.27-.74-.49l-16.12-16.83v17.14h-4.41V8.65c0-.45.13-.86.38-1.23.25-.37.58-.64.98-.82.42-.17.85-.21,1.29-.13.44.08.82.29,1.14.62l16.12,16.82V6.76h4.41v22.45Z"/>
          <path class="cls-1" d="M182.47,31.1h-4.41v-5.97h-15.51v5.97h-4.41v-12.17c0-1.78.31-3.41.92-4.9.61-1.49,1.46-2.78,2.55-3.85,1.09-1.07,2.37-1.91,3.85-2.51,1.48-.6,3.1-.9,4.85-.9h9.94c.31,0,.59.06.87.17.27.11.51.27.71.47.2.2.36.44.48.71.11.27.17.56.17.87v22.11ZM162.55,20.71h15.51v-9.54h-7.75c-.14,0-.42.02-.86.06-.44.04-.94.14-1.51.3-.57.16-1.17.4-1.81.73-.63.33-1.22.78-1.75,1.36-.53.58-.97,1.3-1.32,2.16-.35.87-.52,1.91-.52,3.15v1.78Z"/>
          <path class="cls-1" d="M211.91,29.21c0,.32-.06.61-.18.88-.12.27-.28.51-.47.7-.2.2-.43.35-.7.47-.27.11-.56.17-.87.17-.27,0-.55-.05-.82-.15s-.52-.27-.74-.49l-16.12-16.83v17.14h-4.41V8.65c0-.45.13-.86.38-1.23.25-.37.58-.64.98-.82.42-.17.85-.21,1.29-.13.44.08.82.29,1.14.62l16.12,16.82V6.76h4.41v22.45Z"/>
          <path class="cls-1" d="M239.03,11.18h-9.72v19.92h-4.41V11.18h-9.74v-4.41h23.87v4.41Z"/>
        </g>
        <g>
          <path class="cls-1" d="M125.34,50.06h-2.05v-6.68l-3.6,6.34c-.09.16-.21.28-.37.37-.16.08-.33.13-.51.13s-.34-.04-.5-.13c-.15-.08-.27-.21-.36-.37l-3.62-6.34v6.68h-2.03v-10.34c0-.23.07-.44.21-.63.14-.18.32-.3.54-.37.11-.03.22-.04.33-.03s.21.03.32.07c.1.04.19.09.28.16.08.07.15.15.21.25l4.63,8.04,4.63-8.04c.12-.2.29-.34.5-.42.21-.08.43-.1.66-.04.22.06.4.19.54.37.14.18.21.39.21.63v10.34Z"/>
          <path class="cls-1" d="M143.03,50.06h-2.03v-2.75h-7.15v2.75h-2.03v-5.61c0-.82.14-1.57.42-2.26.28-.69.67-1.28,1.17-1.77.5-.5,1.09-.88,1.77-1.16s1.43-.41,2.24-.41h4.58c.14,0,.27.03.4.08.13.05.23.13.33.22s.17.2.22.33.08.26.08.4v10.19ZM133.85,45.28h7.15v-4.39h-3.57c-.06,0-.19,0-.39.03-.2.02-.43.06-.7.14-.26.07-.54.19-.83.34-.29.15-.56.36-.81.63-.25.27-.45.6-.61,1s-.24.88-.24,1.45v.82Z"/>
          <path class="cls-1" d="M160.91,49.19c0,.15-.03.28-.08.41-.05.13-.13.23-.22.32-.09.09-.2.16-.32.22-.13.05-.26.08-.4.08-.13,0-.25-.02-.38-.07-.13-.05-.24-.12-.34-.23l-7.43-7.76v7.9h-2.03v-10.34c0-.21.06-.4.18-.57.12-.17.27-.3.45-.38.19-.08.39-.1.59-.06.2.04.38.13.52.29l7.43,7.75v-7.9h2.03v10.34Z"/>
          <path class="cls-1" d="M178.6,50.06h-2.03v-2.75h-7.15v2.75h-2.03v-5.61c0-.82.14-1.57.42-2.26.28-.69.67-1.28,1.17-1.77.5-.5,1.09-.88,1.77-1.16s1.43-.41,2.24-.41h4.58c.14,0,.27.03.4.08.13.05.23.13.33.22s.17.2.22.33.08.26.08.4v10.19ZM169.42,45.28h7.15v-4.39h-3.57c-.06,0-.19,0-.39.03-.2.02-.43.06-.7.14-.26.07-.54.19-.83.34-.29.15-.56.36-.81.63-.25.27-.45.6-.61,1s-.24.88-.24,1.45v.82Z"/>
          <path class="cls-1" d="M196.34,49.04c0,.15-.03.28-.08.41-.05.13-.12.23-.21.32s-.2.16-.32.21c-.13.05-.26.08-.41.08h-7.33c-.19,0-.39-.02-.61-.07-.22-.04-.43-.11-.64-.21-.21-.09-.41-.21-.61-.36-.19-.15-.36-.33-.51-.54-.15-.21-.27-.46-.36-.73-.09-.28-.13-.59-.13-.94v-5.5c0-.19.02-.39.07-.61.04-.22.11-.43.21-.64.09-.21.22-.41.37-.61.15-.19.33-.36.54-.51.21-.15.45-.27.73-.36.28-.09.59-.13.94-.13h8.26v2.03h-8.26c-.27,0-.47.07-.61.21-.14.14-.21.35-.21.63v5.49c0,.26.07.46.22.61.14.14.35.21.61.21h6.32v-2.55h-5.41v-2.05h6.42c.15,0,.28.03.41.08.13.05.23.13.32.22.09.09.16.2.21.32.05.12.08.25.08.39v4.58Z"/>
          <path class="cls-1" d="M212.92,50.06h-7.33c-.28,0-.59-.05-.92-.15s-.64-.26-.93-.49c-.28-.23-.52-.52-.71-.88-.19-.36-.29-.81-.29-1.33v-7.33c0-.14.03-.27.08-.4s.12-.23.21-.33c.09-.09.2-.17.32-.22.13-.05.26-.08.41-.08h9.15v2.03h-8.15v6.32c0,.27.07.47.21.61s.35.21.62.21h7.32v2.03ZM212,45.48h-6.42v-2.05h6.42v2.05Z"/>
          <path class="cls-1" d="M230.41,42.62c0,.46-.06.88-.17,1.24s-.27.69-.47.97c-.2.28-.42.52-.68.72-.26.2-.52.36-.8.49-.28.13-.56.22-.84.28-.28.06-.55.09-.8.09l4.25,3.67h-3.14l-4.24-3.67h-1.46v-2.03h4.6c.26-.02.49-.07.7-.16.21-.09.39-.2.55-.35.15-.15.27-.32.36-.53.08-.21.13-.44.13-.71v-1.28c0-.11-.01-.2-.04-.26-.03-.06-.07-.1-.11-.13-.04-.03-.09-.05-.14-.05-.05,0-.09,0-.14,0h-6.71v9.18h-2.03v-10.19c0-.14.03-.27.08-.4.05-.13.12-.23.21-.33.09-.09.2-.17.32-.22.13-.05.26-.08.41-.08h7.72c.45,0,.84.08,1.15.25.31.16.57.37.76.62.2.25.34.51.42.8.09.29.13.56.13.81v1.3Z"/>
        </g>
      </g>
    </g>
  </g>
</svg>